<?xml version="1.0" encoding="iso-8859-1"?>
<!-- Generator: Adobe Illustrator 18.1.1, SVG Export Plug-In . SVG Version: 6.00 Build 0)  -->
<svg version="1.1" id="Capa_1" xmlns="http://www.w3.org/2000/svg" xmlns:xlink="http://www.w3.org/1999/xlink" x="0px" y="0px"
	 viewBox="0 0 19.712 19.712" style="enable-background:new 0 0 19.712 19.712;" xml:space="preserve">
<g>
	<g>
		<path style="fill:#030104;" d="M13.179,18.096h3.577c-1.866-4.792,2.956-13.338,2.956-13.338
			C11.009,10.387,13.179,18.096,13.179,18.096z"/>
		<path style="fill:#030104;" d="M19.712,2.662c-7.162,2.58-8.796,6.235-8.796,6.235s1.656,3.447,1.196,4.909
			C14.02,6.092,19.712,2.662,19.712,2.662z"/>
		<path style="fill:#030104;" d="M0,4.288c0,0,4.824,8.546,2.956,13.338h3.578C6.534,17.627,8.704,9.918,0,4.288z"/>
		<path style="fill:#030104;" d="M3.387,1.616c0,0,5.887,10.432,3.608,16.281h4.367C11.362,17.896,14.01,8.486,3.387,1.616z"/>
	</g>
</g>
<g>
</g>
<g>
</g>
<g>
</g>
<g>
</g>
<g>
</g>
<g>
</g>
<g>
</g>
<g>
</g>
<g>
</g>
<g>
</g>
<g>
</g>
<g>
</g>
<g>
</g>
<g>
</g>
<g>
</g>
</svg>
